{
	"patcher" : 	{
		"fileversion" : 1,
		"appversion" : 		{
			"major" : 7,
			"minor" : 0,
			"revision" : 3,
			"architecture" : "x86",
			"modernui" : 1
		}
,
		"rect" : [ 13.0, 45.0, 1667.0, 971.0 ],
		"bglocked" : 0,
		"openinpresentation" : 0,
		"default_fontsize" : 12.0,
		"default_fontface" : 0,
		"default_fontname" : "Arial",
		"gridonopen" : 1,
		"gridsize" : [ 15.0, 15.0 ],
		"gridsnaponopen" : 1,
		"objectsnaponopen" : 1,
		"statusbarvisible" : 2,
		"toolbarvisible" : 1,
		"lefttoolbarpinned" : 0,
		"toptoolbarpinned" : 0,
		"righttoolbarpinned" : 0,
		"bottomtoolbarpinned" : 0,
		"toolbars_unpinned_last_save" : 15,
		"tallnewobj" : 0,
		"boxanimatetime" : 200,
		"enablehscroll" : 1,
		"enablevscroll" : 1,
		"devicewidth" : 0.0,
		"description" : "",
		"digest" : "",
		"tags" : "",
		"style" : "",
		"subpatcher_template" : "",
		"boxes" : [ 			{
				"box" : 				{
					"id" : "obj-61",
					"maxclass" : "comment",
					"numinlets" : 1,
					"numoutlets" : 0,
					"patching_rect" : [ 667.0, 517.0, 252.0, 20.0 ],
					"style" : "",
					"text" : "Time range listed in unix seconds since 1970"
				}

			}
, 			{
				"box" : 				{
					"id" : "obj-59",
					"linecount" : 11,
					"maxclass" : "message",
					"numinlets" : 2,
					"numoutlets" : 1,
					"outlettype" : [ "" ],
					"patching_rect" : [ 667.0, 636.0, 791.0, 156.0 ],
					"style" : "",
					"text" : "illuminance 4802.246094 3692.626953 3256.835938 3142.578125 3620.117188 3058.59375 3234.619141 3814.453125 4121.826172 5282.226562 5300.048828 5520.751953 5749.267578 5535.4 5229.248047 5112.060547 5083.496094 4991.7 5002.929688 4637.207031 4247.070312 4984.375 4983.398438 4225.341797 4250. 4855.712891 4923.828125 4971.435547 4986.816406 5010.742188 5469.726562 5985.107422 5285.15625 4910.15625 4902.832031 5942.871094 6068.115234 5861.816406 5206.054688 5187.5 5311.767578 5184.326172 5165.771484 5426.757812 5111.083984 5034.912109 5719.238281 5346.679688 5868.408203 6011.230469 5058.349609 4989.013672 4979.492188 4873.291016 4708.251953 4656.494141 4532.958984 4534.667969 4600.341797 4526.123047 4783.935547 4661.132812 4385.986328 4274.414062 4126.708984 3634.765625 3477.050781 3482.421875 3531.494141 3677.246094 3762.451172 3948.242188 4119.873047 4760.009766 4768.554688 5424.072266 6163.574219 6122.802734 5690.917969 5509.277344 5224.121094 4941.894531 4569.824219 4352.050781 4036.132812 3692.138672 3399.902344 3236.328125 3193.603516 3281.982422 3618.652344 3484.375 3299.072266 3268.798828 3072.509766 2835.449219 2627.441406 2498.046875 2478.271484 2555.664062 2665.283203 2850.585938 3092.285156 3974.365234"
				}

			}
, 			{
				"box" : 				{
					"id" : "obj-18",
					"maxclass" : "message",
					"numinlets" : 2,
					"numoutlets" : 1,
					"outlettype" : [ "" ],
					"patching_rect" : [ 667.0, 546.5, 237.0, 22.0 ],
					"style" : "",
					"text" : "data illuminance 1436281300 1436284300"
				}

			}
, 			{
				"box" : 				{
					"id" : "obj-6",
					"maxclass" : "newobj",
					"numinlets" : 1,
					"numoutlets" : 2,
					"outlettype" : [ "", "" ],
					"patching_rect" : [ 667.0, 580.5, 264.0, 22.0 ],
					"style" : "",
					"text" : "chain.device tidmarsh @device_name `0x8158`"
				}

			}
, 			{
				"box" : 				{
					"id" : "obj-40",
					"maxclass" : "message",
					"numinlets" : 2,
					"numoutlets" : 1,
					"outlettype" : [ "" ],
					"patching_rect" : [ 457.0, 329.0, 29.5, 22.0 ],
					"style" : "",
					"text" : "1."
				}

			}
, 			{
				"box" : 				{
					"id" : "obj-41",
					"maxclass" : "newobj",
					"numinlets" : 1,
					"numoutlets" : 2,
					"outlettype" : [ "bang", "" ],
					"patching_rect" : [ 457.0, 352.0, 30.0, 22.0 ],
					"style" : "",
					"text" : "t b l"
				}

			}
, 			{
				"box" : 				{
					"id" : "obj-44",
					"maxclass" : "newobj",
					"numinlets" : 0,
					"numoutlets" : 1,
					"outlettype" : [ "" ],
					"patching_rect" : [ 457.0, 298.0, 91.0, 22.0 ],
					"style" : "",
					"text" : "r afterloadbang"
				}

			}
, 			{
				"box" : 				{
					"id" : "obj-53",
					"maxclass" : "newobj",
					"numinlets" : 2,
					"numoutlets" : 1,
					"outlettype" : [ "float" ],
					"patching_rect" : [ 432.5, 385.0, 29.5, 22.0 ],
					"style" : "",
					"text" : "* 0."
				}

			}
, 			{
				"box" : 				{
					"id" : "obj-36",
					"maxclass" : "message",
					"numinlets" : 2,
					"numoutlets" : 1,
					"outlettype" : [ "" ],
					"patching_rect" : [ 293.0, 37.0, 29.5, 22.0 ],
					"style" : "",
					"text" : "1."
				}

			}
, 			{
				"box" : 				{
					"id" : "obj-29",
					"maxclass" : "newobj",
					"numinlets" : 1,
					"numoutlets" : 2,
					"outlettype" : [ "bang", "" ],
					"patching_rect" : [ 293.0, 60.0, 30.0, 22.0 ],
					"style" : "",
					"text" : "t b l"
				}

			}
, 			{
				"box" : 				{
					"id" : "obj-17",
					"maxclass" : "newobj",
					"numinlets" : 0,
					"numoutlets" : 1,
					"outlettype" : [ "" ],
					"patching_rect" : [ 293.0, 6.0, 91.0, 22.0 ],
					"style" : "",
					"text" : "r afterloadbang"
				}

			}
, 			{
				"box" : 				{
					"id" : "obj-13",
					"maxclass" : "newobj",
					"numinlets" : 2,
					"numoutlets" : 1,
					"outlettype" : [ "float" ],
					"patching_rect" : [ 220.0, 60.0, 29.5, 22.0 ],
					"style" : "",
					"text" : "* 0."
				}

			}
, 			{
				"box" : 				{
					"id" : "obj-68",
					"maxclass" : "comment",
					"numinlets" : 1,
					"numoutlets" : 0,
					"patching_rect" : [ 497.0, 222.0, 150.0, 20.0 ],
					"presentation" : 1,
					"presentation_rect" : [ 466.0, 249.0, 47.0, 20.0 ],
					"style" : "",
					"text" : "angles:"
				}

			}
, 			{
				"box" : 				{
					"id" : "obj-52",
					"maxclass" : "message",
					"numinlets" : 2,
					"numoutlets" : 1,
					"outlettype" : [ "" ],
					"patching_rect" : [ 706.5, 209.0, 29.5, 22.0 ],
					"style" : "",
					"text" : "0."
				}

			}
, 			{
				"box" : 				{
					"id" : "obj-31",
					"maxclass" : "message",
					"numinlets" : 2,
					"numoutlets" : 1,
					"outlettype" : [ "" ],
					"patching_rect" : [ 605.0, 209.0, 29.5, 22.0 ],
					"style" : "",
					"text" : "0."
				}

			}
, 			{
				"box" : 				{
					"id" : "obj-16",
					"maxclass" : "newobj",
					"numinlets" : 1,
					"numoutlets" : 1,
					"outlettype" : [ "bang" ],
					"patching_rect" : [ 552.75, 49.0, 60.0, 22.0 ],
					"style" : "",
					"text" : "loadbang"
				}

			}
, 			{
				"box" : 				{
					"id" : "obj-14",
					"linecount" : 2,
					"maxclass" : "comment",
					"numinlets" : 1,
					"numoutlets" : 0,
					"patching_rect" : [ 161.0, 575.0, 130.0, 33.0 ],
					"style" : "",
					"text" : "poly~ over only at most 10 near devices"
				}

			}
, 			{
				"box" : 				{
					"id" : "obj-28",
					"maxclass" : "newobj",
					"numinlets" : 2,
					"numoutlets" : 2,
					"outlettype" : [ "", "" ],
					"patching_rect" : [ 293.0, 517.0, 62.0, 22.0 ],
					"style" : "",
					"text" : "zl.change"
				}

			}
, 			{
				"box" : 				{
					"id" : "obj-23",
					"maxclass" : "toggle",
					"numinlets" : 1,
					"numoutlets" : 1,
					"outlettype" : [ "int" ],
					"parameter_enable" : 0,
					"patching_rect" : [ 410.0, 298.0, 24.0, 24.0 ],
					"presentation" : 1,
					"presentation_rect" : [ 236.0, 28.0, 48.0, 48.0 ],
					"style" : ""
				}

			}
, 			{
				"box" : 				{
					"id" : "obj-21",
					"maxclass" : "newobj",
					"numinlets" : 2,
					"numoutlets" : 1,
					"outlettype" : [ "bang" ],
					"patching_rect" : [ 293.0, 346.0, 71.0, 22.0 ],
					"style" : "",
					"text" : "metro 1000"
				}

			}
, 			{
				"box" : 				{
					"id" : "obj-20",
					"maxclass" : "newobj",
					"numinlets" : 2,
					"numoutlets" : 2,
					"outlettype" : [ "", "" ],
					"patching_rect" : [ 293.0, 473.0, 40.0, 22.0 ],
					"style" : "",
					"text" : "zl.reg"
				}

			}
, 			{
				"box" : 				{
					"id" : "obj-33",
					"maxclass" : "newobj",
					"numinlets" : 0,
					"numoutlets" : 0,
					"patcher" : 					{
						"fileversion" : 1,
						"appversion" : 						{
							"major" : 7,
							"minor" : 0,
							"revision" : 3,
							"architecture" : "x86",
							"modernui" : 1
						}
,
						"rect" : [ 0.0, 0.0, 640.0, 480.0 ],
						"bglocked" : 0,
						"openinpresentation" : 0,
						"default_fontsize" : 12.0,
						"default_fontface" : 0,
						"default_fontname" : "Arial",
						"gridonopen" : 1,
						"gridsize" : [ 15.0, 15.0 ],
						"gridsnaponopen" : 1,
						"objectsnaponopen" : 1,
						"statusbarvisible" : 2,
						"toolbarvisible" : 1,
						"lefttoolbarpinned" : 0,
						"toptoolbarpinned" : 0,
						"righttoolbarpinned" : 0,
						"bottomtoolbarpinned" : 0,
						"toolbars_unpinned_last_save" : 0,
						"tallnewobj" : 0,
						"boxanimatetime" : 200,
						"enablehscroll" : 1,
						"enablevscroll" : 1,
						"devicewidth" : 0.0,
						"description" : "",
						"digest" : "",
						"tags" : "",
						"style" : "",
						"subpatcher_template" : "",
						"boxes" : [ 							{
								"box" : 								{
									"id" : "obj-22",
									"maxclass" : "newobj",
									"numinlets" : 2,
									"numoutlets" : 1,
									"outlettype" : [ "int" ],
									"patching_rect" : [ 50.0, 296.0, 29.5, 22.0 ],
									"style" : "",
									"text" : "+ 1"
								}

							}
, 							{
								"box" : 								{
									"id" : "obj-18",
									"maxclass" : "newobj",
									"numinlets" : 2,
									"numoutlets" : 2,
									"outlettype" : [ "", "" ],
									"patching_rect" : [ 50.0, 203.0, 49.0, 22.0 ],
									"style" : "",
									"text" : "zl iter 1"
								}

							}
, 							{
								"box" : 								{
									"id" : "obj-17",
									"linecount" : 2,
									"maxclass" : "message",
									"numinlets" : 2,
									"numoutlets" : 1,
									"outlettype" : [ "" ],
									"patching_rect" : [ 50.0, 139.0, 450.0, 35.0 ],
									"style" : "",
									"text" : "1 2 3 4 5 6 7 8 9 10 11 12 13 14 15 16 17 18 19 20 21 22 23 24 25 26 27 28 29 30 31 32 33 34 35 36 37 38 39 40 41 42 43 44 45 46 47 48 49 50"
								}

							}
, 							{
								"box" : 								{
									"id" : "obj-14",
									"maxclass" : "newobj",
									"numinlets" : 1,
									"numoutlets" : 2,
									"outlettype" : [ "", "" ],
									"patching_rect" : [ 50.0, 238.0, 41.0, 22.0 ],
									"style" : "",
									"text" : "t l l"
								}

							}
, 							{
								"box" : 								{
									"id" : "obj-23",
									"maxclass" : "newobj",
									"numinlets" : 2,
									"numoutlets" : 2,
									"outlettype" : [ "", "" ],
									"patching_rect" : [ 50.0, 337.0, 41.0, 22.0 ],
									"style" : "",
									"text" : "zl join"
								}

							}
, 							{
								"box" : 								{
									"id" : "obj-28",
									"maxclass" : "newobj",
									"numinlets" : 1,
									"numoutlets" : 1,
									"outlettype" : [ "" ],
									"patching_rect" : [ 89.0, 296.0, 88.0, 22.0 ],
									"style" : "",
									"text" : "sprintf %s.wav"
								}

							}
, 							{
								"box" : 								{
									"id" : "obj-6",
									"maxclass" : "newobj",
									"numinlets" : 1,
									"numoutlets" : 1,
									"outlettype" : [ "" ],
									"patching_rect" : [ 50.0, 374.0, 98.0, 22.0 ],
									"style" : "",
									"text" : "prepend preload"
								}

							}
, 							{
								"box" : 								{
									"id" : "obj-29",
									"maxclass" : "newobj",
									"numinlets" : 1,
									"numoutlets" : 1,
									"outlettype" : [ "bang" ],
									"patching_rect" : [ 50.0, 100.0, 60.0, 22.0 ],
									"style" : "",
									"text" : "loadbang"
								}

							}
, 							{
								"box" : 								{
									"id" : "obj-30",
									"maxclass" : "newobj",
									"numinlets" : 1,
									"numoutlets" : 1,
									"outlettype" : [ "" ],
									"patching_rect" : [ 50.0, 409.0, 150.0, 22.0 ],
									"save" : [ "#N", "sflist~", "speaknumber_cues", 483840, ";" ],
									"style" : "",
									"text" : "sflist~ speaknumber_cues"
								}

							}
 ],
						"lines" : [ 							{
								"patchline" : 								{
									"destination" : [ "obj-22", 0 ],
									"disabled" : 0,
									"hidden" : 0,
									"source" : [ "obj-14", 0 ]
								}

							}
, 							{
								"patchline" : 								{
									"destination" : [ "obj-28", 0 ],
									"disabled" : 0,
									"hidden" : 0,
									"source" : [ "obj-14", 1 ]
								}

							}
, 							{
								"patchline" : 								{
									"destination" : [ "obj-18", 0 ],
									"disabled" : 0,
									"hidden" : 0,
									"source" : [ "obj-17", 0 ]
								}

							}
, 							{
								"patchline" : 								{
									"destination" : [ "obj-14", 0 ],
									"disabled" : 0,
									"hidden" : 0,
									"source" : [ "obj-18", 0 ]
								}

							}
, 							{
								"patchline" : 								{
									"destination" : [ "obj-23", 0 ],
									"disabled" : 0,
									"hidden" : 0,
									"source" : [ "obj-22", 0 ]
								}

							}
, 							{
								"patchline" : 								{
									"destination" : [ "obj-6", 0 ],
									"disabled" : 0,
									"hidden" : 0,
									"source" : [ "obj-23", 0 ]
								}

							}
, 							{
								"patchline" : 								{
									"destination" : [ "obj-23", 1 ],
									"disabled" : 0,
									"hidden" : 0,
									"source" : [ "obj-28", 0 ]
								}

							}
, 							{
								"patchline" : 								{
									"destination" : [ "obj-17", 0 ],
									"disabled" : 0,
									"hidden" : 0,
									"source" : [ "obj-29", 0 ]
								}

							}
, 							{
								"patchline" : 								{
									"destination" : [ "obj-30", 0 ],
									"disabled" : 0,
									"hidden" : 0,
									"source" : [ "obj-6", 0 ]
								}

							}
 ]
					}
,
					"patching_rect" : [ 549.0, 750.0, 78.0, 22.0 ],
					"saved_object_attributes" : 					{
						"description" : "",
						"digest" : "",
						"globalpatchername" : "",
						"style" : "",
						"tags" : ""
					}
,
					"style" : "",
					"text" : "p speakcues"
				}

			}
, 			{
				"box" : 				{
					"id" : "obj-5",
					"maxclass" : "newobj",
					"numinlets" : 1,
					"numoutlets" : 1,
					"outlettype" : [ "" ],
					"patching_rect" : [ 293.0, 647.0, 81.0, 22.0 ],
					"style" : "",
					"text" : "prepend start"
				}

			}
, 			{
				"box" : 				{
					"id" : "obj-3",
					"maxclass" : "newobj",
					"numinlets" : 2,
					"numoutlets" : 2,
					"outlettype" : [ "", "" ],
					"patching_rect" : [ 381.5, 610.0, 88.0, 22.0 ],
					"style" : "",
					"text" : "route removed"
				}

			}
, 			{
				"box" : 				{
					"id" : "obj-19",
					"maxclass" : "newobj",
					"numinlets" : 2,
					"numoutlets" : 2,
					"outlettype" : [ "", "" ],
					"patching_rect" : [ 293.0, 610.0, 75.0, 22.0 ],
					"style" : "",
					"text" : "route added"
				}

			}
, 			{
				"box" : 				{
					"id" : "obj-15",
					"maxclass" : "newobj",
					"numinlets" : 1,
					"numoutlets" : 1,
					"outlettype" : [ "" ],
					"patching_rect" : [ 317.0, 441.0, 77.0, 22.0 ],
					"style" : "",
					"text" : "prepend pos"
				}

			}
, 			{
				"box" : 				{
					"id" : "obj-10",
					"maxclass" : "newobj",
					"numinlets" : 0,
					"numoutlets" : 1,
					"outlettype" : [ "" ],
					"patching_rect" : [ 317.0, 376.0, 51.0, 22.0 ],
					"style" : "",
					"text" : "r player"
				}

			}
, 			{
				"box" : 				{
					"id" : "obj-8",
					"maxclass" : "newobj",
					"numinlets" : 2,
					"numoutlets" : 2,
					"outlettype" : [ "", "" ],
					"patching_rect" : [ 317.0, 407.0, 57.0, 22.0 ],
					"style" : "",
					"text" : "zl.slice 3"
				}

			}
, 			{
				"box" : 				{
					"id" : "obj-2",
					"maxclass" : "newobj",
					"numinlets" : 1,
					"numoutlets" : 2,
					"outlettype" : [ "", "" ],
					"patching_rect" : [ 293.0, 576.0, 228.0, 22.0 ],
					"style" : "",
					"text" : "chain.zone tidmarsh @enter 8. @exit 12."
				}

			}
, 			{
				"box" : 				{
					"id" : "obj-56",
					"maxclass" : "newobj",
					"numinlets" : 1,
					"numoutlets" : 1,
					"outlettype" : [ "" ],
					"patching_rect" : [ 381.5, 647.0, 81.0, 22.0 ],
					"style" : "",
					"text" : "prepend stop"
				}

			}
, 			{
				"box" : 				{
					"id" : "obj-55",
					"maxclass" : "newobj",
					"numinlets" : 1,
					"numoutlets" : 1,
					"outlettype" : [ "" ],
					"patching_rect" : [ 293.0, 697.0, 81.0, 22.0 ],
					"style" : "",
					"text" : "prepend note"
				}

			}
, 			{
				"box" : 				{
					"id" : "obj-51",
					"maxclass" : "comment",
					"numinlets" : 1,
					"numoutlets" : 0,
					"patching_rect" : [ 86.0, 16.0, 150.0, 20.0 ],
					"presentation" : 1,
					"presentation_rect" : [ 3.5, 6.0, 150.0, 20.0 ],
					"style" : "",
					"text" : "Sync Data:"
				}

			}
, 			{
				"box" : 				{
					"args" : [ "tidmarsh" ],
					"bgmode" : 0,
					"border" : 0,
					"clickthrough" : 0,
					"enablehscroll" : 0,
					"enablevscroll" : 0,
					"id" : "obj-42",
					"lockeddragscroll" : 0,
					"maxclass" : "bpatcher",
					"name" : "databrowser.maxpat",
					"numinlets" : 1,
					"numoutlets" : 1,
					"offset" : [ 0.0, 0.0 ],
					"outlettype" : [ "" ],
					"patching_rect" : [ 18.0, 254.0, 211.0, 109.0 ],
					"presentation" : 1,
					"presentation_rect" : [ 3.5, 114.0, 211.0, 109.0 ],
					"viewvisibility" : 1
				}

			}
, 			{
				"box" : 				{
					"id" : "obj-34",
					"maxclass" : "comment",
					"numinlets" : 1,
					"numoutlets" : 0,
					"patching_rect" : [ 549.0, 27.0, 150.0, 20.0 ],
					"presentation" : 1,
					"presentation_rect" : [ 338.0, 79.0, 150.0, 20.0 ],
					"style" : "",
					"text" : "Location Source"
				}

			}
, 			{
				"box" : 				{
					"id" : "obj-27",
					"maxclass" : "newobj",
					"numinlets" : 1,
					"numoutlets" : 3,
					"outlettype" : [ "float", "float", "float" ],
					"patcher" : 					{
						"fileversion" : 1,
						"appversion" : 						{
							"major" : 7,
							"minor" : 0,
							"revision" : 3,
							"architecture" : "x86",
							"modernui" : 1
						}
,
						"rect" : [ 0.0, 0.0, 640.0, 480.0 ],
						"bglocked" : 0,
						"openinpresentation" : 0,
						"default_fontsize" : 12.0,
						"default_fontface" : 0,
						"default_fontname" : "Arial",
						"gridonopen" : 1,
						"gridsize" : [ 15.0, 15.0 ],
						"gridsnaponopen" : 1,
						"objectsnaponopen" : 1,
						"statusbarvisible" : 2,
						"toolbarvisible" : 1,
						"lefttoolbarpinned" : 0,
						"toptoolbarpinned" : 0,
						"righttoolbarpinned" : 0,
						"bottomtoolbarpinned" : 0,
						"toolbars_unpinned_last_save" : 0,
						"tallnewobj" : 0,
						"boxanimatetime" : 200,
						"enablehscroll" : 1,
						"enablevscroll" : 1,
						"devicewidth" : 0.0,
						"description" : "",
						"digest" : "",
						"tags" : "",
						"style" : "",
						"subpatcher_template" : "",
						"boxes" : [ 							{
								"box" : 								{
									"id" : "obj-69",
									"maxclass" : "newobj",
									"numinlets" : 2,
									"numoutlets" : 1,
									"outlettype" : [ "float" ],
									"patching_rect" : [ 106.5, 207.0, 29.5, 22.0 ],
									"style" : "",
									"text" : "* 1."
								}

							}
, 							{
								"box" : 								{
									"id" : "obj-67",
									"maxclass" : "newobj",
									"numinlets" : 2,
									"numoutlets" : 1,
									"outlettype" : [ "float" ],
									"patching_rect" : [ 56.5, 207.0, 29.5, 22.0 ],
									"style" : "",
									"text" : "* 1."
								}

							}
, 							{
								"box" : 								{
									"id" : "obj-65",
									"maxclass" : "newobj",
									"numinlets" : 2,
									"numoutlets" : 1,
									"outlettype" : [ "float" ],
									"patching_rect" : [ 106.5, 173.0, 44.0, 22.0 ],
									"style" : "",
									"text" : "+ 270."
								}

							}
, 							{
								"box" : 								{
									"id" : "obj-64",
									"maxclass" : "newobj",
									"numinlets" : 2,
									"numoutlets" : 1,
									"outlettype" : [ "float" ],
									"patching_rect" : [ 56.5, 173.0, 44.0, 22.0 ],
									"style" : "",
									"text" : "+ 270."
								}

							}
, 							{
								"box" : 								{
									"id" : "obj-62",
									"maxclass" : "newobj",
									"numinlets" : 1,
									"numoutlets" : 3,
									"outlettype" : [ "float", "float", "float" ],
									"patching_rect" : [ 56.5, 140.0, 69.0, 22.0 ],
									"style" : "",
									"text" : "unpack f f f"
								}

							}
, 							{
								"box" : 								{
									"id" : "obj-58",
									"maxclass" : "newobj",
									"numinlets" : 2,
									"numoutlets" : 2,
									"outlettype" : [ "", "" ],
									"patching_rect" : [ 50.0, 100.0, 57.0, 22.0 ],
									"style" : "",
									"text" : "zl.slice 2"
								}

							}
, 							{
								"box" : 								{
									"comment" : "",
									"id" : "obj-19",
									"maxclass" : "inlet",
									"numinlets" : 0,
									"numoutlets" : 1,
									"outlettype" : [ "list" ],
									"patching_rect" : [ 50.0, 40.0, 30.0, 30.0 ],
									"style" : ""
								}

							}
, 							{
								"box" : 								{
									"comment" : "",
									"id" : "obj-21",
									"maxclass" : "outlet",
									"numinlets" : 1,
									"numoutlets" : 0,
									"patching_rect" : [ 56.5, 289.0, 30.0, 30.0 ],
									"style" : ""
								}

							}
, 							{
								"box" : 								{
									"comment" : "",
									"id" : "obj-22",
									"maxclass" : "outlet",
									"numinlets" : 1,
									"numoutlets" : 0,
									"patching_rect" : [ 91.5, 289.0, 30.0, 30.0 ],
									"style" : ""
								}

							}
, 							{
								"box" : 								{
									"comment" : "",
									"id" : "obj-23",
									"maxclass" : "outlet",
									"numinlets" : 1,
									"numoutlets" : 0,
									"patching_rect" : [ 126.5, 289.0, 30.0, 30.0 ],
									"style" : ""
								}

							}
 ],
						"lines" : [ 							{
								"patchline" : 								{
									"destination" : [ "obj-58", 0 ],
									"disabled" : 0,
									"hidden" : 0,
									"source" : [ "obj-19", 0 ]
								}

							}
, 							{
								"patchline" : 								{
									"destination" : [ "obj-62", 0 ],
									"disabled" : 0,
									"hidden" : 0,
									"source" : [ "obj-58", 1 ]
								}

							}
, 							{
								"patchline" : 								{
									"destination" : [ "obj-22", 0 ],
									"disabled" : 0,
									"hidden" : 0,
									"source" : [ "obj-62", 1 ]
								}

							}
, 							{
								"patchline" : 								{
									"destination" : [ "obj-64", 0 ],
									"disabled" : 0,
									"hidden" : 0,
									"source" : [ "obj-62", 0 ]
								}

							}
, 							{
								"patchline" : 								{
									"destination" : [ "obj-65", 0 ],
									"disabled" : 0,
									"hidden" : 0,
									"source" : [ "obj-62", 2 ]
								}

							}
, 							{
								"patchline" : 								{
									"destination" : [ "obj-67", 0 ],
									"disabled" : 0,
									"hidden" : 0,
									"source" : [ "obj-64", 0 ]
								}

							}
, 							{
								"patchline" : 								{
									"destination" : [ "obj-69", 0 ],
									"disabled" : 0,
									"hidden" : 0,
									"source" : [ "obj-65", 0 ]
								}

							}
, 							{
								"patchline" : 								{
									"destination" : [ "obj-21", 0 ],
									"disabled" : 0,
									"hidden" : 0,
									"source" : [ "obj-67", 0 ]
								}

							}
, 							{
								"patchline" : 								{
									"destination" : [ "obj-23", 0 ],
									"disabled" : 0,
									"hidden" : 0,
									"source" : [ "obj-69", 0 ]
								}

							}
 ]
					}
,
					"patching_rect" : [ 701.0, 285.0, 101.0, 22.0 ],
					"saved_object_attributes" : 					{
						"description" : "",
						"digest" : "",
						"globalpatchername" : "",
						"style" : "",
						"tags" : ""
					}
,
					"style" : "",
					"text" : "p coordtransform"
				}

			}
, 			{
				"box" : 				{
					"id" : "obj-86",
					"maxclass" : "newobj",
					"numinlets" : 1,
					"numoutlets" : 1,
					"outlettype" : [ "" ],
					"patching_rect" : [ 584.0, 376.0, 74.0, 22.0 ],
					"style" : "",
					"text" : "prepend set"
				}

			}
, 			{
				"box" : 				{
					"id" : "obj-83",
					"maxclass" : "newobj",
					"numinlets" : 2,
					"numoutlets" : 1,
					"outlettype" : [ "int" ],
					"patching_rect" : [ 552.75, 111.0, 29.5, 22.0 ],
					"style" : "",
					"text" : "+ 1"
				}

			}
, 			{
				"box" : 				{
					"id" : "obj-80",
					"items" : [ "osc", ",", "map" ],
					"maxclass" : "umenu",
					"numinlets" : 1,
					"numoutlets" : 3,
					"outlettype" : [ "int", "", "" ],
					"parameter_enable" : 0,
					"patching_rect" : [ 552.75, 78.0, 100.0, 22.0 ],
					"presentation" : 1,
					"presentation_rect" : [ 236.0, 79.0, 100.5, 22.0 ],
					"style" : ""
				}

			}
, 			{
				"box" : 				{
					"format" : 6,
					"id" : "obj-77",
					"maxclass" : "flonum",
					"numinlets" : 1,
					"numoutlets" : 2,
					"outlettype" : [ "", "bang" ],
					"parameter_enable" : 0,
					"patching_rect" : [ 880.5, 285.0, 50.0, 22.0 ],
					"presentation" : 1,
					"presentation_rect" : [ 466.0, 300.0, 50.0, 22.0 ],
					"style" : ""
				}

			}
, 			{
				"box" : 				{
					"format" : 6,
					"id" : "obj-75",
					"maxclass" : "flonum",
					"numinlets" : 1,
					"numoutlets" : 2,
					"outlettype" : [ "", "bang" ],
					"parameter_enable" : 0,
					"patching_rect" : [ 812.5, 285.0, 50.0, 22.0 ],
					"presentation" : 1,
					"presentation_rect" : [ 466.0, 271.0, 50.0, 22.0 ],
					"style" : ""
				}

			}
, 			{
				"box" : 				{
					"id" : "obj-71",
					"maxclass" : "newobj",
					"numinlets" : 5,
					"numoutlets" : 1,
					"outlettype" : [ "" ],
					"patching_rect" : [ 701.0, 318.0, 63.0, 22.0 ],
					"style" : "",
					"text" : "pak f f f f f"
				}

			}
, 			{
				"box" : 				{
					"id" : "obj-45",
					"maxclass" : "newobj",
					"numinlets" : 3,
					"numoutlets" : 1,
					"outlettype" : [ "" ],
					"patching_rect" : [ 633.0, 346.0, 54.0, 22.0 ],
					"style" : "",
					"text" : "switch 2"
				}

			}
, 			{
				"box" : 				{
					"id" : "obj-48",
					"maxclass" : "newobj",
					"numinlets" : 1,
					"numoutlets" : 0,
					"patching_rect" : [ 670.75, 376.0, 53.0, 22.0 ],
					"style" : "",
					"text" : "s player"
				}

			}
, 			{
				"box" : 				{
					"id" : "obj-47",
					"maxclass" : "newobj",
					"numinlets" : 5,
					"numoutlets" : 1,
					"outlettype" : [ "" ],
					"patching_rect" : [ 589.5, 242.5, 63.0, 22.0 ],
					"style" : "",
					"text" : "pak f f f f f"
				}

			}
, 			{
				"box" : 				{
					"id" : "obj-46",
					"maxclass" : "newobj",
					"numinlets" : 1,
					"numoutlets" : 3,
					"outlettype" : [ "float", "float", "float" ],
					"patching_rect" : [ 667.0, 170.0, 69.0, 22.0 ],
					"style" : "",
					"text" : "unpack f f f"
				}

			}
, 			{
				"box" : 				{
					"id" : "obj-49",
					"maxclass" : "newobj",
					"numinlets" : 1,
					"numoutlets" : 3,
					"outlettype" : [ "float", "float", "float" ],
					"patching_rect" : [ 589.5, 170.0, 69.0, 22.0 ],
					"style" : "",
					"text" : "unpack f f f"
				}

			}
, 			{
				"box" : 				{
					"id" : "obj-50",
					"maxclass" : "newobj",
					"numinlets" : 1,
					"numoutlets" : 3,
					"outlettype" : [ "", "", "" ],
					"patching_rect" : [ 589.5, 137.0, 224.0, 22.0 ],
					"style" : "",
					"text" : "OSC-route /player/position /player/angle"
				}

			}
, 			{
				"box" : 				{
					"id" : "obj-43",
					"maxclass" : "newobj",
					"numinlets" : 1,
					"numoutlets" : 1,
					"outlettype" : [ "" ],
					"patching_rect" : [ 589.5, 111.0, 99.0, 22.0 ],
					"style" : "",
					"text" : "udpreceive 5555"
				}

			}
, 			{
				"box" : 				{
					"id" : "obj-37",
					"maxclass" : "textedit",
					"numinlets" : 1,
					"numoutlets" : 4,
					"outlettype" : [ "", "int", "", "" ],
					"parameter_enable" : 0,
					"patching_rect" : [ 584.0, 412.0, 280.0, 22.0 ],
					"presentation" : 1,
					"presentation_rect" : [ 236.0, 331.5, 280.0, 22.0 ],
					"readonly" : 1,
					"style" : "",
					"text" : "132.875702 0. 352.847504 52.499966 0."
				}

			}
, 			{
				"box" : 				{
					"id" : "obj-32",
					"maxclass" : "comment",
					"numinlets" : 1,
					"numoutlets" : 0,
					"patching_rect" : [ 302.5, 251.0, 150.0, 20.0 ],
					"presentation" : 1,
					"presentation_rect" : [ 236.0, 4.0, 150.0, 20.0 ],
					"style" : "",
					"text" : "Spatial Audio mapping:"
				}

			}
, 			{
				"box" : 				{
					"id" : "obj-24",
					"maxclass" : "comment",
					"numinlets" : 1,
					"numoutlets" : 0,
					"patching_rect" : [ 18.0, 191.0, 150.0, 20.0 ],
					"presentation" : 1,
					"presentation_rect" : [ 3.5, 88.0, 150.0, 20.0 ],
					"style" : "",
					"text" : "Data Browser:"
				}

			}
, 			{
				"box" : 				{
					"id" : "obj-73",
					"maxclass" : "toggle",
					"numinlets" : 1,
					"numoutlets" : 1,
					"outlettype" : [ "int" ],
					"parameter_enable" : 0,
					"patching_rect" : [ 245.0, 12.0, 24.0, 24.0 ],
					"presentation" : 1,
					"presentation_rect" : [ 3.5, 28.0, 46.0, 46.0 ],
					"style" : ""
				}

			}
, 			{
				"box" : 				{
					"id" : "obj-26",
					"maxclass" : "ezdac~",
					"numinlets" : 2,
					"numoutlets" : 0,
					"patching_rect" : [ 293.0, 850.0, 45.0, 45.0 ],
					"presentation" : 1,
					"presentation_rect" : [ 288.5, 28.0, 48.0, 48.0 ],
					"style" : ""
				}

			}
, 			{
				"box" : 				{
					"id" : "obj-25",
					"maxclass" : "newobj",
					"numinlets" : 16,
					"numoutlets" : 2,
					"outlettype" : [ "signal", "signal" ],
					"patching_rect" : [ 293.0, 803.0, 202.0, 22.0 ],
					"style" : "",
					"text" : "hoa.3d.decoder~ 3 @mode binaural"
				}

			}
, 			{
				"box" : 				{
					"id" : "obj-11",
					"maxclass" : "newobj",
					"numinlets" : 1,
					"numoutlets" : 16,
					"outlettype" : [ "signal", "signal", "signal", "signal", "signal", "signal", "signal", "signal", "signal", "signal", "signal", "signal", "signal", "signal", "signal", "signal" ],
					"patching_rect" : [ 293.0, 750.0, 176.5, 22.0 ],
					"style" : "",
					"text" : "poly~ devicevoice~ 5"
				}

			}
, 			{
				"box" : 				{
					"id" : "obj-39",
					"maxclass" : "newobj",
					"numinlets" : 0,
					"numoutlets" : 1,
					"outlettype" : [ "" ],
					"patching_rect" : [ 18.0, 221.0, 91.0, 22.0 ],
					"style" : "",
					"text" : "r afterloadbang"
				}

			}
, 			{
				"box" : 				{
					"id" : "obj-38",
					"maxclass" : "newobj",
					"numinlets" : 1,
					"numoutlets" : 0,
					"patching_rect" : [ 369.0, 169.0, 93.0, 22.0 ],
					"style" : "",
					"text" : "s afterloadbang"
				}

			}
, 			{
				"box" : 				{
					"id" : "obj-35",
					"maxclass" : "newobj",
					"numinlets" : 1,
					"numoutlets" : 1,
					"outlettype" : [ "" ],
					"patching_rect" : [ 369.0, 137.0, 113.0, 22.0 ],
					"style" : "",
					"text" : "if $i1==0 then bang"
				}

			}
, 			{
				"box" : 				{
					"id" : "obj-9",
					"maxclass" : "toggle",
					"numinlets" : 1,
					"numoutlets" : 1,
					"outlettype" : [ "int" ],
					"parameter_enable" : 0,
					"patching_rect" : [ 340.0, 137.0, 24.0, 24.0 ],
					"style" : ""
				}

			}
, 			{
				"box" : 				{
					"id" : "obj-7",
					"maxclass" : "newobj",
					"numinlets" : 1,
					"numoutlets" : 1,
					"outlettype" : [ "bang" ],
					"patching_rect" : [ 21.0, 16.0, 60.0, 22.0 ],
					"style" : "",
					"text" : "loadbang"
				}

			}
, 			{
				"box" : 				{
					"id" : "obj-4",
					"maxclass" : "message",
					"numinlets" : 2,
					"numoutlets" : 1,
					"outlettype" : [ "" ],
					"patching_rect" : [ 21.0, 53.0, 33.0, 22.0 ],
					"style" : "",
					"text" : "load"
				}

			}
, 			{
				"box" : 				{
					"id" : "obj-1",
					"maxclass" : "newobj",
					"numinlets" : 1,
					"numoutlets" : 2,
					"outlettype" : [ "", "" ],
					"patching_rect" : [ 21.0, 91.0, 338.0, 22.0 ],
					"style" : "",
					"text" : "chain.site tidmarsh @url http://chain-api.media.mit.edu/sites/7"
				}

			}
, 			{
				"box" : 				{
					"color" : [ 1.0, 1.0, 1.0, 1.0 ],
					"fontface" : 0,
					"fontname" : "Arial",
					"fontsize" : 12.0,
					"id" : "obj-54",
					"map_saved_state" : [ "_source_preset_data_", "source", 1, 1, -49.545456, 0.0, 3.636364, 0, 0.2, 0.2, 0.2, 1.0, "", "source", 2, 0, 0.0, 0.0, 0.0, 0, 0.0, 0.0, 0.0, 1.0, "", "source", 3, 0, 0.0, 0.0, 0.0, 0, 0.0, 0.0, 0.0, 1.0, "", "source", 4, 0, 0.0, 0.0, 0.0, 0, 0.0, 0.0, 0.0, 1.0, "", "source", 5, 0, 0.0, 0.0, 0.0, 0, 0.0, 0.0, 0.0, 1.0, "", "source", 6, 0, 0.0, 0.0, 0.0, 0, 0.0, 0.0, 0.0, 1.0, "", "source", 7, 0, 0.0, 0.0, 0.0, 0, 0.0, 0.0, 0.0, 1.0, "", "source", 8, 0, 0.0, 0.0, 0.0, 0, 0.0, 0.0, 0.0, 1.0, "", "source", 9, 0, 0.0, 0.0, 0.0, 0, 0.0, 0.0, 0.0, 1.0, "", "source", 10, 0, 0.0, 0.0, 0.0, 0, 0.0, 0.0, 0.0, 1.0, "", "source", 11, 0, 0.0, 0.0, 0.0, 0, 0.0, 0.0, 0.0, 1.0, "", "source", 12, 0, 0.0, 0.0, 0.0, 0, 0.0, 0.0, 0.0, 1.0, "", "source", 13, 0, 0.0, 0.0, 0.0, 0, 0.0, 0.0, 0.0, 1.0, "", "source", 14, 0, 0.0, 0.0, 0.0, 0, 0.0, 0.0, 0.0, 1.0, "", "source", 15, 0, 0.0, 0.0, 0.0, 0, 0.0, 0.0, 0.0, 1.0, "", "source", 16, 0, 0.0, 0.0, 0.0, 0, 0.0, 0.0, 0.0, 1.0, "", "source", 17, 0, 0.0, 0.0, 0.0, 0, 0.0, 0.0, 0.0, 1.0, "", "source", 18, 0, 0.0, 0.0, 0.0, 0, 0.0, 0.0, 0.0, 1.0, "", "source", 19, 0, 0.0, 0.0, 0.0, 0, 0.0, 0.0, 0.0, 1.0, "", "source", 20, 0, 0.0, 0.0, 0.0, 0, 0.0, 0.0, 0.0, 1.0, "", "source", 21, 0, 0.0, 0.0, 0.0, 0, 0.0, 0.0, 0.0, 1.0, "", "source", 22, 0, 0.0, 0.0, 0.0, 0, 0.0, 0.0, 0.0, 1.0, "", "source", 23, 0, 0.0, 0.0, 0.0, 0, 0.0, 0.0, 0.0, 1.0, "", "source", 24, 0, 0.0, 0.0, 0.0, 0, 0.0, 0.0, 0.0, 1.0, "", "source", 25, 0, 0.0, 0.0, 0.0, 0, 0.0, 0.0, 0.0, 1.0, "", "source", 26, 0, 0.0, 0.0, 0.0, 0, 0.0, 0.0, 0.0, 1.0, "", "source", 27, 0, 0.0, 0.0, 0.0, 0, 0.0, 0.0, 0.0, 1.0, "", "source", 28, 0, 0.0, 0.0, 0.0, 0, 0.0, 0.0, 0.0, 1.0, "", "source", 29, 0, 0.0, 0.0, 0.0, 0, 0.0, 0.0, 0.0, 1.0, "", "source", 30, 0, 0.0, 0.0, 0.0, 0, 0.0, 0.0, 0.0, 1.0, "", "source", 31, 0, 0.0, 0.0, 0.0, 0, 0.0, 0.0, 0.0, 1.0, "", "source", 32, 0, 0.0, 0.0, 0.0, 0, 0.0, 0.0, 0.0, 1.0, "", "source", 33, 0, 0.0, 0.0, 0.0, 0, 0.0, 0.0, 0.0, 1.0, "", "source", 34, 0, 0.0, 0.0, 0.0, 0, 0.0, 0.0, 0.0, 1.0, "", "source", 35, 0, 0.0, 0.0, 0.0, 0, 0.0, 0.0, 0.0, 1.0, "", "source", 36, 0, 0.0, 0.0, 0.0, 0, 0.0, 0.0, 0.0, 1.0, "", "source", 37, 0, 0.0, 0.0, 0.0, 0, 0.0, 0.0, 0.0, 1.0, "", "source", 38, 0, 0.0, 0.0, 0.0, 0, 0.0, 0.0, 0.0, 1.0, "", "source", 39, 0, 0.0, 0.0, 0.0, 0, 0.0, 0.0, 0.0, 1.0, "", "source", 40, 0, 0.0, 0.0, 0.0, 0, 0.0, 0.0, 0.0, 1.0, "", "source", 41, 0, 0.0, 0.0, 0.0, 0, 0.0, 0.0, 0.0, 1.0, "", "source", 42, 0, 0.0, 0.0, 0.0, 0, 0.0, 0.0, 0.0, 1.0, "", "source", 43, 0, 0.0, 0.0, 0.0, 0, 0.0, 0.0, 0.0, 1.0, "", "source", 44, 0, 0.0, 0.0, 0.0, 0, 0.0, 0.0, 0.0, 1.0, "", "source", 45, 0, 0.0, 0.0, 0.0, 0, 0.0, 0.0, 0.0, 1.0, "", "source", 46, 0, 0.0, 0.0, 0.0, 0, 0.0, 0.0, 0.0, 1.0, "", "source", 47, 0, 0.0, 0.0, 0.0, 0, 0.0, 0.0, 0.0, 1.0, "", "source", 48, 0, 0.0, 0.0, 0.0, 0, 0.0, 0.0, 0.0, 1.0, "", "source", 49, 0, 0.0, 0.0, 0.0, 0, 0.0, 0.0, 0.0, 1.0, "", "source", 50, 0, 0.0, 0.0, 0.0, 0, 0.0, 0.0, 0.0, 1.0, "", "source", 51, 0, 0.0, 0.0, 0.0, 0, 0.0, 0.0, 0.0, 1.0, "", "source", 52, 0, 0.0, 0.0, 0.0, 0, 0.0, 0.0, 0.0, 1.0, "", "source", 53, 0, 0.0, 0.0, 0.0, 0, 0.0, 0.0, 0.0, 1.0, "", "source", 54, 0, 0.0, 0.0, 0.0, 0, 0.0, 0.0, 0.0, 1.0, "", "source", 55, 0, 0.0, 0.0, 0.0, 0, 0.0, 0.0, 0.0, 1.0, "", "source", 56, 0, 0.0, 0.0, 0.0, 0, 0.0, 0.0, 0.0, 1.0, "", "source", 57, 0, 0.0, 0.0, 0.0, 0, 0.0, 0.0, 0.0, 1.0, "", "source", 58, 0, 0.0, 0.0, 0.0, 0, 0.0, 0.0, 0.0, 1.0, "", "source", 59, 0, 0.0, 0.0, 0.0, 0, 0.0, 0.0, 0.0, 1.0, "", "source", 60, 0, 0.0, 0.0, 0.0, 0, 0.0, 0.0, 0.0, 1.0, "", "source", 61, 0, 0.0, 0.0, 0.0, 0, 0.0, 0.0, 0.0, 1.0, "", "source", 62, 0, 0.0, 0.0, 0.0, 0, 0.0, 0.0, 0.0, 1.0, "", "source", 63, 0, 0.0, 0.0, 0.0, 0, 0.0, 0.0, 0.0, 1.0, "", "source", 64, 0, 0.0, 0.0, 0.0, 0, 0.0, 0.0, 0.0, 1.0, "", "_group_preset_data_", "group", 1, 0, "", 0.0, 0.0, 0.0, 0.0, "", "group", 2, 0, "", 0.0, 0.0, 0.0, 0.0, "", "group", 3, 0, "", 0.0, 0.0, 0.0, 0.0, "", "group", 4, 0, "", 0.0, 0.0, 0.0, 0.0, "", "group", 5, 0, "", 0.0, 0.0, 0.0, 0.0, "", "group", 6, 0, "", 0.0, 0.0, 0.0, 0.0, "", "group", 7, 0, "", 0.0, 0.0, 0.0, 0.0, "", "group", 8, 0, "", 0.0, 0.0, 0.0, 0.0, "", "group", 9, 0, "", 0.0, 0.0, 0.0, 0.0, "", "group", 10, 0, "", 0.0, 0.0, 0.0, 0.0, "", "group", 11, 0, "", 0.0, 0.0, 0.0, 0.0, "", "group", 12, 0, "", 0.0, 0.0, 0.0, 0.0, "", "group", 13, 0, "", 0.0, 0.0, 0.0, 0.0, "", "group", 14, 0, "", 0.0, 0.0, 0.0, 0.0, "", "group", 15, 0, "", 0.0, 0.0, 0.0, 0.0, "", "group", 16, 0, "", 0.0, 0.0, 0.0, 0.0, "", "group", 17, 0, "", 0.0, 0.0, 0.0, 0.0, "", "group", 18, 0, "", 0.0, 0.0, 0.0, 0.0, "", "group", 19, 0, "", 0.0, 0.0, 0.0, 0.0, "", "group", 20, 0, "", 0.0, 0.0, 0.0, 0.0, "", "group", 21, 0, "", 0.0, 0.0, 0.0, 0.0, "", "group", 22, 0, "", 0.0, 0.0, 0.0, 0.0, "", "group", 23, 0, "", 0.0, 0.0, 0.0, 0.0, "", "group", 24, 0, "", 0.0, 0.0, 0.0, 0.0, "", "group", 25, 0, "", 0.0, 0.0, 0.0, 0.0, "", "group", 26, 0, "", 0.0, 0.0, 0.0, 0.0, "", "group", 27, 0, "", 0.0, 0.0, 0.0, 0.0, "", "group", 28, 0, "", 0.0, 0.0, 0.0, 0.0, "", "group", 29, 0, "", 0.0, 0.0, 0.0, 0.0, "", "group", 30, 0, "", 0.0, 0.0, 0.0, 0.0, "", "group", 31, 0, "", 0.0, 0.0, 0.0, 0.0, "", "group", 32, 0, "", 0.0, 0.0, 0.0, 0.0, "", "group", 33, 0, "", 0.0, 0.0, 0.0, 0.0, "", "group", 34, 0, "", 0.0, 0.0, 0.0, 0.0, "", "group", 35, 0, "", 0.0, 0.0, 0.0, 0.0, "", "group", 36, 0, "", 0.0, 0.0, 0.0, 0.0, "", "group", 37, 0, "", 0.0, 0.0, 0.0, 0.0, "", "group", 38, 0, "", 0.0, 0.0, 0.0, 0.0, "", "group", 39, 0, "", 0.0, 0.0, 0.0, 0.0, "", "group", 40, 0, "", 0.0, 0.0, 0.0, 0.0, "", "group", 41, 0, "", 0.0, 0.0, 0.0, 0.0, "", "group", 42, 0, "", 0.0, 0.0, 0.0, 0.0, "", "group", 43, 0, "", 0.0, 0.0, 0.0, 0.0, "", "group", 44, 0, "", 0.0, 0.0, 0.0, 0.0, "", "group", 45, 0, "", 0.0, 0.0, 0.0, 0.0, "", "group", 46, 0, "", 0.0, 0.0, 0.0, 0.0, "", "group", 47, 0, "", 0.0, 0.0, 0.0, 0.0, "", "group", 48, 0, "", 0.0, 0.0, 0.0, 0.0, "", "group", 49, 0, "", 0.0, 0.0, 0.0, 0.0, "", "group", 50, 0, "", 0.0, 0.0, 0.0, 0.0, "", "group", 51, 0, "", 0.0, 0.0, 0.0, 0.0, "", "group", 52, 0, "", 0.0, 0.0, 0.0, 0.0, "", "group", 53, 0, "", 0.0, 0.0, 0.0, 0.0, "", "group", 54, 0, "", 0.0, 0.0, 0.0, 0.0, "", "group", 55, 0, "", 0.0, 0.0, 0.0, 0.0, "", "group", 56, 0, "", 0.0, 0.0, 0.0, 0.0, "", "group", 57, 0, "", 0.0, 0.0, 0.0, 0.0, "", "group", 58, 0, "", 0.0, 0.0, 0.0, 0.0, "", "group", 59, 0, "", 0.0, 0.0, 0.0, 0.0, "", "group", 60, 0, "", 0.0, 0.0, 0.0, 0.0, "", "group", 61, 0, "", 0.0, 0.0, 0.0, 0.0, "", "group", 62, 0, "", 0.0, 0.0, 0.0, 0.0, "", "group", 63, 0, "", 0.0, 0.0, 0.0, 0.0, "", "group", 64, 0, "", 0.0, 0.0, 0.0, 0.0, "" ],
					"maxclass" : "hoa.map",
					"numinlets" : 1,
					"numoutlets" : 3,
					"outlettype" : [ "list", "list", "list" ],
					"outputmode" : 1,
					"parameter_enable" : 0,
					"patching_rect" : [ 825.5, 44.5, 220.0, 220.0 ],
					"presentation" : 1,
					"presentation_rect" : [ 236.0, 103.0, 220.0, 220.0 ],
					"showgroups" : 0,
					"view" : 1,
					"zoom" : 0.01
				}

			}
 ],
		"lines" : [ 			{
				"patchline" : 				{
					"destination" : [ "obj-35", 0 ],
					"disabled" : 0,
					"hidden" : 0,
					"source" : [ "obj-1", 1 ]
				}

			}
, 			{
				"patchline" : 				{
					"destination" : [ "obj-9", 0 ],
					"disabled" : 0,
					"hidden" : 0,
					"source" : [ "obj-1", 1 ]
				}

			}
, 			{
				"patchline" : 				{
					"destination" : [ "obj-8", 0 ],
					"disabled" : 0,
					"hidden" : 0,
					"source" : [ "obj-10", 0 ]
				}

			}
, 			{
				"patchline" : 				{
					"destination" : [ "obj-25", 15 ],
					"disabled" : 0,
					"hidden" : 0,
					"source" : [ "obj-11", 15 ]
				}

			}
, 			{
				"patchline" : 				{
					"destination" : [ "obj-25", 14 ],
					"disabled" : 0,
					"hidden" : 0,
					"source" : [ "obj-11", 14 ]
				}

			}
, 			{
				"patchline" : 				{
					"destination" : [ "obj-25", 13 ],
					"disabled" : 0,
					"hidden" : 0,
					"source" : [ "obj-11", 13 ]
				}

			}
, 			{
				"patchline" : 				{
					"destination" : [ "obj-25", 12 ],
					"disabled" : 0,
					"hidden" : 0,
					"source" : [ "obj-11", 12 ]
				}

			}
, 			{
				"patchline" : 				{
					"destination" : [ "obj-25", 11 ],
					"disabled" : 0,
					"hidden" : 0,
					"source" : [ "obj-11", 11 ]
				}

			}
, 			{
				"patchline" : 				{
					"destination" : [ "obj-25", 10 ],
					"disabled" : 0,
					"hidden" : 0,
					"source" : [ "obj-11", 10 ]
				}

			}
, 			{
				"patchline" : 				{
					"destination" : [ "obj-25", 9 ],
					"disabled" : 0,
					"hidden" : 0,
					"source" : [ "obj-11", 9 ]
				}

			}
, 			{
				"patchline" : 				{
					"destination" : [ "obj-25", 8 ],
					"disabled" : 0,
					"hidden" : 0,
					"source" : [ "obj-11", 8 ]
				}

			}
, 			{
				"patchline" : 				{
					"destination" : [ "obj-25", 7 ],
					"disabled" : 0,
					"hidden" : 0,
					"source" : [ "obj-11", 7 ]
				}

			}
, 			{
				"patchline" : 				{
					"destination" : [ "obj-25", 6 ],
					"disabled" : 0,
					"hidden" : 0,
					"source" : [ "obj-11", 6 ]
				}

			}
, 			{
				"patchline" : 				{
					"destination" : [ "obj-25", 5 ],
					"disabled" : 0,
					"hidden" : 0,
					"source" : [ "obj-11", 5 ]
				}

			}
, 			{
				"patchline" : 				{
					"destination" : [ "obj-25", 4 ],
					"disabled" : 0,
					"hidden" : 0,
					"source" : [ "obj-11", 4 ]
				}

			}
, 			{
				"patchline" : 				{
					"destination" : [ "obj-25", 3 ],
					"disabled" : 0,
					"hidden" : 0,
					"source" : [ "obj-11", 3 ]
				}

			}
, 			{
				"patchline" : 				{
					"destination" : [ "obj-25", 2 ],
					"disabled" : 0,
					"hidden" : 0,
					"source" : [ "obj-11", 2 ]
				}

			}
, 			{
				"patchline" : 				{
					"destination" : [ "obj-25", 1 ],
					"disabled" : 0,
					"hidden" : 0,
					"source" : [ "obj-11", 1 ]
				}

			}
, 			{
				"patchline" : 				{
					"destination" : [ "obj-25", 0 ],
					"disabled" : 0,
					"hidden" : 0,
					"source" : [ "obj-11", 0 ]
				}

			}
, 			{
				"patchline" : 				{
					"destination" : [ "obj-1", 0 ],
					"disabled" : 0,
					"hidden" : 0,
					"source" : [ "obj-13", 0 ]
				}

			}
, 			{
				"patchline" : 				{
					"destination" : [ "obj-20", 1 ],
					"disabled" : 0,
					"hidden" : 0,
					"source" : [ "obj-15", 0 ]
				}

			}
, 			{
				"patchline" : 				{
					"destination" : [ "obj-80", 0 ],
					"disabled" : 0,
					"hidden" : 0,
					"source" : [ "obj-16", 0 ]
				}

			}
, 			{
				"patchline" : 				{
					"destination" : [ "obj-36", 0 ],
					"disabled" : 0,
					"hidden" : 0,
					"source" : [ "obj-17", 0 ]
				}

			}
, 			{
				"patchline" : 				{
					"destination" : [ "obj-6", 0 ],
					"disabled" : 0,
					"hidden" : 0,
					"source" : [ "obj-18", 0 ]
				}

			}
, 			{
				"patchline" : 				{
					"destination" : [ "obj-5", 0 ],
					"disabled" : 0,
					"hidden" : 0,
					"source" : [ "obj-19", 0 ]
				}

			}
, 			{
				"patchline" : 				{
					"destination" : [ "obj-19", 0 ],
					"disabled" : 0,
					"hidden" : 0,
					"source" : [ "obj-2", 0 ]
				}

			}
, 			{
				"patchline" : 				{
					"destination" : [ "obj-3", 0 ],
					"disabled" : 0,
					"hidden" : 0,
					"midpoints" : [ 511.5, 603.0, 391.0, 603.0 ],
					"source" : [ "obj-2", 1 ]
				}

			}
, 			{
				"patchline" : 				{
					"destination" : [ "obj-28", 0 ],
					"disabled" : 0,
					"hidden" : 0,
					"source" : [ "obj-20", 0 ]
				}

			}
, 			{
				"patchline" : 				{
					"destination" : [ "obj-20", 0 ],
					"disabled" : 0,
					"hidden" : 0,
					"source" : [ "obj-21", 0 ]
				}

			}
, 			{
				"patchline" : 				{
					"destination" : [ "obj-53", 0 ],
					"disabled" : 0,
					"hidden" : 0,
					"source" : [ "obj-23", 0 ]
				}

			}
, 			{
				"patchline" : 				{
					"destination" : [ "obj-26", 1 ],
					"disabled" : 0,
					"hidden" : 0,
					"midpoints" : [ 485.5, 837.0, 328.5, 837.0 ],
					"source" : [ "obj-25", 1 ]
				}

			}
, 			{
				"patchline" : 				{
					"destination" : [ "obj-26", 0 ],
					"disabled" : 0,
					"hidden" : 0,
					"source" : [ "obj-25", 0 ]
				}

			}
, 			{
				"patchline" : 				{
					"destination" : [ "obj-71", 2 ],
					"disabled" : 0,
					"hidden" : 0,
					"source" : [ "obj-27", 2 ]
				}

			}
, 			{
				"patchline" : 				{
					"destination" : [ "obj-71", 1 ],
					"disabled" : 0,
					"hidden" : 0,
					"source" : [ "obj-27", 1 ]
				}

			}
, 			{
				"patchline" : 				{
					"destination" : [ "obj-71", 0 ],
					"disabled" : 0,
					"hidden" : 0,
					"source" : [ "obj-27", 0 ]
				}

			}
, 			{
				"patchline" : 				{
					"destination" : [ "obj-2", 0 ],
					"disabled" : 0,
					"hidden" : 0,
					"source" : [ "obj-28", 0 ]
				}

			}
, 			{
				"patchline" : 				{
					"destination" : [ "obj-13", 1 ],
					"disabled" : 0,
					"hidden" : 0,
					"source" : [ "obj-29", 1 ]
				}

			}
, 			{
				"patchline" : 				{
					"destination" : [ "obj-13", 0 ],
					"disabled" : 0,
					"hidden" : 0,
					"source" : [ "obj-29", 0 ]
				}

			}
, 			{
				"patchline" : 				{
					"destination" : [ "obj-56", 0 ],
					"disabled" : 0,
					"hidden" : 0,
					"source" : [ "obj-3", 0 ]
				}

			}
, 			{
				"patchline" : 				{
					"destination" : [ "obj-47", 1 ],
					"disabled" : 0,
					"hidden" : 0,
					"source" : [ "obj-31", 0 ]
				}

			}
, 			{
				"patchline" : 				{
					"destination" : [ "obj-38", 0 ],
					"disabled" : 0,
					"hidden" : 0,
					"source" : [ "obj-35", 0 ]
				}

			}
, 			{
				"patchline" : 				{
					"destination" : [ "obj-29", 0 ],
					"disabled" : 0,
					"hidden" : 0,
					"source" : [ "obj-36", 0 ]
				}

			}
, 			{
				"patchline" : 				{
					"destination" : [ "obj-42", 0 ],
					"disabled" : 0,
					"hidden" : 0,
					"source" : [ "obj-39", 0 ]
				}

			}
, 			{
				"patchline" : 				{
					"destination" : [ "obj-1", 0 ],
					"disabled" : 0,
					"hidden" : 0,
					"source" : [ "obj-4", 0 ]
				}

			}
, 			{
				"patchline" : 				{
					"destination" : [ "obj-41", 0 ],
					"disabled" : 0,
					"hidden" : 0,
					"source" : [ "obj-40", 0 ]
				}

			}
, 			{
				"patchline" : 				{
					"destination" : [ "obj-53", 1 ],
					"disabled" : 0,
					"hidden" : 0,
					"source" : [ "obj-41", 1 ]
				}

			}
, 			{
				"patchline" : 				{
					"destination" : [ "obj-53", 0 ],
					"disabled" : 0,
					"hidden" : 0,
					"source" : [ "obj-41", 0 ]
				}

			}
, 			{
				"patchline" : 				{
					"destination" : [ "obj-50", 0 ],
					"disabled" : 0,
					"hidden" : 0,
					"source" : [ "obj-43", 0 ]
				}

			}
, 			{
				"patchline" : 				{
					"destination" : [ "obj-40", 0 ],
					"disabled" : 0,
					"hidden" : 0,
					"source" : [ "obj-44", 0 ]
				}

			}
, 			{
				"patchline" : 				{
					"destination" : [ "obj-48", 0 ],
					"disabled" : 0,
					"hidden" : 0,
					"source" : [ "obj-45", 0 ]
				}

			}
, 			{
				"patchline" : 				{
					"destination" : [ "obj-86", 0 ],
					"disabled" : 0,
					"hidden" : 0,
					"source" : [ "obj-45", 0 ]
				}

			}
, 			{
				"patchline" : 				{
					"destination" : [ "obj-47", 3 ],
					"disabled" : 0,
					"hidden" : 0,
					"source" : [ "obj-46", 1 ]
				}

			}
, 			{
				"patchline" : 				{
					"destination" : [ "obj-45", 1 ],
					"disabled" : 0,
					"hidden" : 0,
					"midpoints" : [ 599.0, 342.0, 660.0, 342.0 ],
					"source" : [ "obj-47", 0 ]
				}

			}
, 			{
				"patchline" : 				{
					"destination" : [ "obj-47", 2 ],
					"disabled" : 0,
					"hidden" : 0,
					"source" : [ "obj-49", 2 ]
				}

			}
, 			{
				"patchline" : 				{
					"destination" : [ "obj-47", 0 ],
					"disabled" : 0,
					"hidden" : 0,
					"source" : [ "obj-49", 0 ]
				}

			}
, 			{
				"patchline" : 				{
					"destination" : [ "obj-55", 0 ],
					"disabled" : 0,
					"hidden" : 0,
					"source" : [ "obj-5", 0 ]
				}

			}
, 			{
				"patchline" : 				{
					"destination" : [ "obj-46", 0 ],
					"disabled" : 0,
					"hidden" : 0,
					"source" : [ "obj-50", 1 ]
				}

			}
, 			{
				"patchline" : 				{
					"destination" : [ "obj-49", 0 ],
					"disabled" : 0,
					"hidden" : 0,
					"source" : [ "obj-50", 0 ]
				}

			}
, 			{
				"patchline" : 				{
					"destination" : [ "obj-47", 4 ],
					"disabled" : 0,
					"hidden" : 0,
					"source" : [ "obj-52", 0 ]
				}

			}
, 			{
				"patchline" : 				{
					"destination" : [ "obj-21", 0 ],
					"disabled" : 0,
					"hidden" : 0,
					"source" : [ "obj-53", 0 ]
				}

			}
, 			{
				"patchline" : 				{
					"destination" : [ "obj-27", 0 ],
					"disabled" : 0,
					"hidden" : 0,
					"source" : [ "obj-54", 0 ]
				}

			}
, 			{
				"patchline" : 				{
					"destination" : [ "obj-11", 0 ],
					"disabled" : 0,
					"hidden" : 0,
					"source" : [ "obj-55", 0 ]
				}

			}
, 			{
				"patchline" : 				{
					"destination" : [ "obj-11", 0 ],
					"disabled" : 0,
					"hidden" : 0,
					"midpoints" : [ 391.0, 737.0, 302.5, 737.0 ],
					"source" : [ "obj-56", 0 ]
				}

			}
, 			{
				"patchline" : 				{
					"destination" : [ "obj-59", 1 ],
					"disabled" : 0,
					"hidden" : 0,
					"source" : [ "obj-6", 0 ]
				}

			}
, 			{
				"patchline" : 				{
					"destination" : [ "obj-4", 0 ],
					"disabled" : 0,
					"hidden" : 0,
					"source" : [ "obj-7", 0 ]
				}

			}
, 			{
				"patchline" : 				{
					"destination" : [ "obj-45", 2 ],
					"disabled" : 0,
					"hidden" : 0,
					"midpoints" : [ 710.5, 342.0, 677.5, 342.0 ],
					"source" : [ "obj-71", 0 ]
				}

			}
, 			{
				"patchline" : 				{
					"destination" : [ "obj-13", 0 ],
					"disabled" : 0,
					"hidden" : 0,
					"source" : [ "obj-73", 0 ]
				}

			}
, 			{
				"patchline" : 				{
					"destination" : [ "obj-71", 3 ],
					"disabled" : 0,
					"hidden" : 0,
					"source" : [ "obj-75", 0 ]
				}

			}
, 			{
				"patchline" : 				{
					"destination" : [ "obj-71", 4 ],
					"disabled" : 0,
					"hidden" : 0,
					"midpoints" : [ 890.0, 318.0, 765.0, 318.0, 765.0, 315.0, 754.5, 315.0 ],
					"source" : [ "obj-77", 0 ]
				}

			}
, 			{
				"patchline" : 				{
					"destination" : [ "obj-15", 0 ],
					"disabled" : 0,
					"hidden" : 0,
					"source" : [ "obj-8", 0 ]
				}

			}
, 			{
				"patchline" : 				{
					"destination" : [ "obj-83", 0 ],
					"disabled" : 0,
					"hidden" : 0,
					"source" : [ "obj-80", 0 ]
				}

			}
, 			{
				"patchline" : 				{
					"destination" : [ "obj-45", 0 ],
					"disabled" : 0,
					"hidden" : 0,
					"midpoints" : [ 562.25, 162.0, 561.0, 162.0, 561.0, 351.0, 630.0, 351.0, 630.0, 342.0, 642.5, 342.0 ],
					"source" : [ "obj-83", 0 ]
				}

			}
, 			{
				"patchline" : 				{
					"destination" : [ "obj-37", 0 ],
					"disabled" : 0,
					"hidden" : 0,
					"source" : [ "obj-86", 0 ]
				}

			}
 ],
		"dependency_cache" : [ 			{
				"name" : "devicevoice~.maxpat",
				"bootpath" : "~/things/maxchain/testproj/patchers",
				"patcherrelativepath" : ".",
				"type" : "JSON",
				"implicit" : 1
			}
, 			{
				"name" : "devicesound~.maxpat",
				"bootpath" : "~/things/maxchain/testproj/patchers",
				"patcherrelativepath" : ".",
				"type" : "JSON",
				"implicit" : 1
			}
, 			{
				"name" : "speaknumber~.maxpat",
				"bootpath" : "~/things/maxchain/testproj/patchers",
				"patcherrelativepath" : ".",
				"type" : "JSON",
				"implicit" : 1
			}
, 			{
				"name" : "databrowser.maxpat",
				"bootpath" : "~/things/maxchain/testproj/patchers",
				"patcherrelativepath" : ".",
				"type" : "JSON",
				"implicit" : 1
			}
, 			{
				"name" : "hoa.map.mxo",
				"type" : "iLaX"
			}
, 			{
				"name" : "chain.site.mxo",
				"type" : "iLaX"
			}
, 			{
				"name" : "chain.device.mxo",
				"type" : "iLaX"
			}
, 			{
				"name" : "hoa.3d.map~.mxo",
				"type" : "iLaX"
			}
, 			{
				"name" : "hoa.pi.mxo",
				"type" : "iLaX"
			}
, 			{
				"name" : "hoa.3d.decoder~.mxo",
				"type" : "iLaX"
			}
, 			{
				"name" : "OSC-route.mxo",
				"type" : "iLaX"
			}
, 			{
				"name" : "chain.info.mxo",
				"type" : "iLaX"
			}
, 			{
				"name" : "chain.zone.mxo",
				"type" : "iLaX"
			}
 ],
		"embedsnapshot" : 0
	}

}
